<svg xmlns="http://www.w3.org/2000/svg" width="458" height="158" xmlns:v="https://vecta.io/nano"><path d="M386.654 109.972c0-.232.042-.448.125-.651s.204-.382.35-.531a1.61 1.61 0 0 1 .525-.357c.204-.091.421-.137.65-.137a1.6 1.6 0 0 1 .659.137c.204.087.383.207.534.357s.267.328.354.531.125.419.125.651a1.67 1.67 0 0 1-.125.656 1.7 1.7 0 0 1-.354.527c-.15.149-.329.27-.534.353a1.74 1.74 0 0 1-.659.124 1.71 1.71 0 0 1-.65-.124 1.54 1.54 0 0 1-.525-.353c-.146-.149-.263-.328-.35-.527a1.67 1.67 0 0 1-.125-.656" fill="#e5007d"/><path d="M95.125 71.04a5.14 5.14 0 0 0 2.163 1.863c.879.403 1.784.597 2.718.597a5.55 5.55 0 0 0 1.596-.241c.541-.162 1.034-.407 1.48-.73a3.95 3.95 0 0 0 1.088-1.199c.283-.473.425-1.025.425-1.651 0-.884-.283-1.56-.846-2.025s-1.263-.855-2.101-1.166l-2.73-.904c-.988-.295-1.901-.701-2.734-1.22s-1.538-1.216-2.101-2.087-.846-2.058-.846-3.547c0-.668.146-1.382.438-2.137s.754-1.452 1.384-2.074 1.438-1.149 2.426-1.572 2.176-.631 3.564-.631c1.259 0 2.459.17 3.61.519s2.163 1.046 3.03 2.103l-2.538 2.303c-.392-.606-.946-1.095-1.663-1.46s-1.53-.548-2.438-.548c-.867 0-1.592.112-2.163.34s-1.038.519-1.384.871-.592.743-.734 1.153a3.47 3.47 0 0 0-.208 1.133c0 .971.279 1.718.846 2.232s1.259.942 2.097 1.265a25.29 25.29 0 0 0 2.734.875 11.67 11.67 0 0 1 2.734 1.087c.834.461 1.534 1.087 2.101 1.879.563.784.842 1.871.842 3.253 0 1.104-.208 2.095-.634 2.979s-.992 1.635-1.705 2.236-1.567 1.07-2.543 1.394-2.017.485-3.122.485c-1.476 0-2.876-.257-4.197-.776s-2.38-1.319-3.159-2.398l2.572-2.203zm19.852-2.885c0 .776.117 1.498.358 2.153s.575 1.22 1.009 1.689a4.7 4.7 0 0 0 1.592 1.099c.634.27 1.338.407 2.117.407s1.488-.137 2.113-.407 1.163-.639 1.596-1.099a4.91 4.91 0 0 0 1.009-1.689 6.3 6.3 0 0 0 .358-2.153 6.31 6.31 0 0 0-.358-2.153c-.238-.66-.575-1.22-1.009-1.684a4.69 4.69 0 0 0-1.596-1.104c-.629-.27-1.33-.402-2.113-.402s-1.484.133-2.117.402a4.65 4.65 0 0 0-1.592 1.104c-.433.465-.771 1.025-1.009 1.684s-.358 1.377-.358 2.153zm-3.122 0c0-1.12.208-2.17.634-3.141a8.23 8.23 0 0 1 1.738-2.56 8.19 8.19 0 0 1 2.605-1.734c.996-.423 2.072-.631 3.222-.631s2.226.207 3.222.631a8.08 8.08 0 0 1 2.601 1.734 8.09 8.09 0 0 1 1.742 2.56c.421.971.638 2.021.638 3.141a7.88 7.88 0 0 1-.638 3.161 7.81 7.81 0 0 1-1.742 2.556c-.734.726-1.601 1.299-2.601 1.718s-2.072.635-3.222.635-2.226-.212-3.222-.635a8.29 8.29 0 0 1-2.605-1.718c-.738-.726-1.317-1.572-1.738-2.556a7.95 7.95 0 0 1-.634-3.161zm31.925-3.596c-.542-.56-1.113-.987-1.709-1.278s-1.305-.44-2.13-.44c-.804 0-1.505.145-2.101.44s-1.096.689-1.496 1.195-.704 1.095-.913 1.751-.308 1.344-.308 2.058a5.75 5.75 0 0 0 .358 2.025 5.08 5.08 0 0 0 1.009 1.668 4.61 4.61 0 0 0 1.563 1.116c.608.27 1.288.407 2.051.407.821 0 1.53-.145 2.113-.436s1.13-.722 1.63-1.278l2.08 2.07c-.759.842-1.642 1.448-2.651 1.813a9.26 9.26 0 0 1-3.205.552c-1.192 0-2.284-.195-3.272-.581a7.6 7.6 0 0 1-2.555-1.639c-.717-.701-1.267-1.543-1.659-2.527s-.584-2.066-.584-3.253.196-2.282.584-3.273.938-1.846 1.646-2.56 1.551-1.27 2.538-1.668 2.084-.602 3.301-.602a8.83 8.83 0 0 1 3.239.602 7.08 7.08 0 0 1 2.684 1.83l-2.213 2.008zm5.696 11.274h2.93V60.478h-2.93v15.355zm-.684-20.861a2.04 2.04 0 0 1 .634-1.506c.421-.419.93-.631 1.513-.631s1.088.212 1.513.631.638.925.638 1.506a2.03 2.03 0 0 1-.638 1.502c-.425.423-.925.635-1.513.635s-1.092-.212-1.513-.635a2.02 2.02 0 0 1-.634-1.502zm17.412 13.474a20.77 20.77 0 0 0-2.13.112c-.729.079-1.392.224-1.988.44s-1.084.519-1.463.904-.571.888-.571 1.494c0 .888.3 1.518.896 1.913.596.386 1.405.581 2.426.581.8 0 1.484-.137 2.051-.407s1.017-.618 1.367-1.054c.346-.427.596-.909.746-1.44s.229-1.05.229-1.572v-.971h-1.563zm-8.27-6.091a8.17 8.17 0 0 1 2.868-1.701c1.088-.378 2.167-.564 3.255-.564 1.125 0 2.097.141 2.909.419s1.484.66 2.005 1.137.904 1.016 1.155 1.635a5.14 5.14 0 0 1 .375 1.925v7.841l.029 1.489.1 1.299h-2.605l-.096-2.336h-.067c-.65.996-1.421 1.697-2.309 2.108s-1.922.614-3.093.614a7.1 7.1 0 0 1-2.051-.29 5.01 5.01 0 0 1-1.709-.875c-.488-.39-.875-.867-1.155-1.44s-.425-1.236-.425-1.991c0-.996.225-1.826.667-2.498s1.055-1.216 1.826-1.635 1.667-.726 2.701-.909a18.91 18.91 0 0 1 3.301-.274h2.151v-.647c0-.39-.079-.78-.229-1.166a3.11 3.11 0 0 0-.684-1.054c-.305-.311-.684-.564-1.138-.747s-1-.274-1.626-.274c-.567 0-1.059.054-1.484.162s-.809.245-1.155.407a5.21 5.21 0 0 0-.946.564l-.809.614-1.763-1.813zm17.874 13.482h2.928V51.346h-2.928zm19.686-4.797a5.14 5.14 0 0 0 2.163 1.863c.879.403 1.784.597 2.718.597a5.55 5.55 0 0 0 1.596-.241c.541-.162 1.034-.407 1.48-.73a3.95 3.95 0 0 0 1.092-1.199c.283-.477.421-1.025.421-1.651 0-.884-.283-1.56-.846-2.025s-1.263-.855-2.101-1.166l-2.73-.904c-.988-.295-1.901-.701-2.734-1.22s-1.538-1.216-2.101-2.087-.846-2.058-.846-3.547c0-.668.146-1.382.442-2.137a5.86 5.86 0 0 1 1.38-2.074c.629-.626 1.438-1.149 2.426-1.572s2.176-.631 3.564-.631a12.4 12.4 0 0 1 3.614.519c1.146.344 2.155 1.046 3.026 2.103l-2.538 2.303c-.392-.606-.946-1.095-1.659-1.46s-1.534-.548-2.443-.548c-.867 0-1.592.112-2.163.34s-1.038.519-1.384.871-.592.743-.734 1.153a3.47 3.47 0 0 0-.208 1.133c0 .971.279 1.718.842 2.232s1.267.942 2.101 1.265a25.01 25.01 0 0 0 2.734.875 11.67 11.67 0 0 1 2.734 1.087c.834.461 1.534 1.087 2.101 1.879.563.784.842 1.871.842 3.253 0 1.104-.208 2.095-.634 2.979s-.992 1.635-1.705 2.236-1.567 1.07-2.543 1.394-2.017.485-3.122.485c-1.476 0-2.876-.257-4.197-.776s-2.376-1.319-3.159-2.398l2.572-2.203zm28.933-4.147c-.021-.647-.125-1.241-.308-1.78a3.93 3.93 0 0 0-.829-1.411c-.371-.398-.829-.714-1.384-.938s-1.2-.34-1.938-.34c-.713 0-1.371.133-1.967.402s-1.1.622-1.513 1.054a4.9 4.9 0 0 0-.963 1.44c-.229.527-.342 1.054-.342 1.572h9.245zm-9.245 2.332c0 .672.146 1.278.442 1.83s.675 1.025 1.155 1.411 1.03.693 1.663.904a5.85 5.85 0 0 0 1.951.328c.913 0 1.705-.212 2.376-.635s1.288-.975 1.855-1.664l2.213 1.68c-1.63 2.095-3.906 3.145-6.836 3.145-1.213 0-2.318-.207-3.301-.614-.988-.415-1.821-.979-2.505-1.701s-1.213-1.581-1.584-2.564-.55-2.041-.55-3.19.2-2.207.6-3.19.955-1.834 1.659-2.556 1.546-1.29 2.526-1.701 2.038-.614 3.189-.614c1.367 0 2.522.236 3.464.709s1.721 1.099 2.33 1.863 1.046 1.631 1.317 2.593a10.73 10.73 0 0 1 .404 2.929v1.037h-12.367zm27.731-4.665c-.542-.56-1.113-.987-1.709-1.278s-1.305-.44-2.13-.44c-.804 0-1.505.145-2.101.44a4.22 4.22 0 0 0-1.496 1.195 5.35 5.35 0 0 0-.909 1.751c-.213.66-.313 1.344-.313 2.058a5.75 5.75 0 0 0 .358 2.025 5.08 5.08 0 0 0 1.009 1.668 4.61 4.61 0 0 0 1.563 1.116c.608.27 1.288.407 2.047.407.825 0 1.534-.145 2.117-.436s1.13-.722 1.63-1.278l2.08 2.07c-.759.842-1.642 1.448-2.651 1.813s-2.08.552-3.209.552c-1.192 0-2.28-.195-3.268-.581a7.6 7.6 0 0 1-2.555-1.639c-.717-.701-1.267-1.543-1.659-2.527s-.588-2.066-.588-3.253.196-2.282.588-3.273.938-1.846 1.642-2.56 1.555-1.27 2.538-1.668 2.088-.602 3.301-.602c1.13 0 2.209.199 3.243.602s1.926 1.008 2.684 1.83l-2.213 2.008zm19.137 11.275h-2.93V73.47h-.063c-.371.821-1.009 1.485-1.922 1.991s-1.963.763-3.155.763c-.759 0-1.476-.116-2.147-.34a4.8 4.8 0 0 1-1.776-1.058c-.509-.477-.917-1.083-1.221-1.83s-.454-1.622-.454-2.639v-9.878h2.926v9.069c0 .714.1 1.323.292 1.83s.458.921.784 1.232a2.96 2.96 0 0 0 1.125.68 4.13 4.13 0 0 0 1.317.212c.604 0 1.171-.1 1.692-.29a3.57 3.57 0 0 0 1.367-.925c.388-.423.692-.954.909-1.606.217-.643.325-1.415.325-2.298v-7.904h2.93v15.355zm5.241-15.358h2.93v2.365h.063a4.13 4.13 0 0 1 .784-1.116 5.16 5.16 0 0 1 1.088-.859 5.76 5.76 0 0 1 1.317-.568c.479-.141.959-.212 1.434-.212a4.15 4.15 0 0 1 1.3.195l-.129 3.141-.717-.162a4.15 4.15 0 0 0-.717-.062c-1.43 0-2.526.398-3.285 1.199s-1.138 2.037-1.138 3.726v7.709h-2.93V60.477zm13.083 15.356h2.93V60.478h-2.93v15.355zm-.684-20.861c0-.581.213-1.087.634-1.506a2.08 2.08 0 0 1 1.517-.631c.587 0 1.088.212 1.509.631a2.04 2.04 0 0 1 .634 1.506 2.02 2.02 0 0 1-.634 1.502c-.421.423-.925.635-1.509.635a2.08 2.08 0 0 1-1.517-.635c-.421-.415-.634-.917-.634-1.502zm17.348 8.033h-4.202v6.962l.038 1.282c.021.419.1.801.242 1.137a1.82 1.82 0 0 0 .65.805c.292.203.721.311 1.288.311a6.46 6.46 0 0 0 1.071-.095 3.2 3.2 0 0 0 1.009-.357v2.655c-.346.195-.796.328-1.35.402l-1.284.116c-1.13 0-2.005-.158-2.622-.469s-1.075-.722-1.367-1.22c-.292-.49-.463-1.05-.521-1.664l-.079-1.863v-8.003h-3.385v-2.527h3.385v-4.311h2.926v4.311h4.202v2.527zm2.766-2.528h3.385l4.568 11.986h.067l4.377-11.986h3.126l-7.323 18.658-.809 1.834c-.279.548-.613 1.016-1.005 1.406s-.859.693-1.409.909-1.23.324-2.026.324c-.433 0-.871-.025-1.313-.083a4.85 4.85 0 0 1-1.28-.336l.354-2.659a4.55 4.55 0 0 0 1.746.361 3.39 3.39 0 0 0 1.146-.178 2.28 2.28 0 0 0 .813-.523 3.15 3.15 0 0 0 .567-.792l.45-1.037.946-2.427-6.381-15.455zm30.201 10.563a5.13 5.13 0 0 0 2.163 1.863 6.52 6.52 0 0 0 2.718.597 5.55 5.55 0 0 0 1.596-.241c.541-.162 1.034-.407 1.48-.73a3.95 3.95 0 0 0 1.092-1.199c.283-.477.421-1.025.421-1.651 0-.884-.283-1.56-.846-2.025s-1.263-.855-2.101-1.166l-2.73-.904c-.988-.295-1.901-.701-2.734-1.22s-1.538-1.216-2.101-2.087-.846-2.058-.846-3.547c0-.668.146-1.382.442-2.137a5.86 5.86 0 0 1 1.38-2.074c.629-.626 1.438-1.149 2.426-1.572s2.176-.631 3.564-.631a12.4 12.4 0 0 1 3.614.519c1.155.349 2.159 1.046 3.026 2.103l-2.538 2.303c-.392-.606-.946-1.095-1.659-1.46s-1.534-.548-2.443-.548c-.867 0-1.592.112-2.163.34s-1.038.519-1.384.871-.592.743-.734 1.153a3.47 3.47 0 0 0-.208 1.133c0 .971.279 1.718.842 2.232s1.263.942 2.101 1.265a25.21 25.21 0 0 0 2.734.875 11.67 11.67 0 0 1 2.734 1.087c.834.461 1.534 1.087 2.101 1.879.563.784.842 1.871.842 3.253 0 1.104-.208 2.095-.634 2.979s-.992 1.635-1.705 2.236-1.567 1.07-2.543 1.394-2.017.485-3.122.485c-1.476 0-2.876-.257-4.197-.776s-2.38-1.319-3.159-2.398l2.572-2.203zm28.51-6.481c-.542-.56-1.113-.987-1.709-1.278s-1.305-.44-2.13-.44c-.804 0-1.501.145-2.101.44s-1.096.689-1.496 1.195-.704 1.095-.913 1.751-.308 1.344-.308 2.058a5.75 5.75 0 0 0 .358 2.025 5.08 5.08 0 0 0 1.009 1.668 4.61 4.61 0 0 0 1.563 1.116c.608.27 1.288.407 2.051.407.821 0 1.53-.145 2.113-.436s1.13-.722 1.63-1.278l2.08 2.07c-.759.842-1.642 1.448-2.651 1.813a9.26 9.26 0 0 1-3.205.552c-1.192 0-2.284-.195-3.272-.581a7.6 7.6 0 0 1-2.555-1.639c-.713-.701-1.267-1.543-1.659-2.527s-.588-2.066-.588-3.253.196-2.282.588-3.273.938-1.846 1.646-2.56 1.551-1.27 2.538-1.668 2.084-.602 3.301-.602a8.83 8.83 0 0 1 3.239.602 7.08 7.08 0 0 1 2.684 1.83l-2.213 2.008zm8.434 3.596c0 .776.117 1.498.358 2.153s.575 1.22 1.009 1.689a4.7 4.7 0 0 0 1.592 1.099c.634.27 1.338.407 2.117.407s1.488-.137 2.117-.407a4.74 4.74 0 0 0 1.592-1.099 4.91 4.91 0 0 0 1.009-1.689 6.3 6.3 0 0 0 .358-2.153 6.31 6.31 0 0 0-.358-2.153c-.238-.66-.575-1.22-1.009-1.684s-.967-.834-1.592-1.104-1.334-.402-2.117-.402-1.484.133-2.117.402a4.65 4.65 0 0 0-1.592 1.104c-.433.465-.771 1.025-1.009 1.684s-.358 1.377-.358 2.153zm-3.122 0c0-1.12.208-2.17.634-3.141a8.23 8.23 0 0 1 1.738-2.56 8.19 8.19 0 0 1 2.605-1.734c1-.423 2.072-.631 3.222-.631s2.226.207 3.222.631 1.867 1 2.605 1.734 1.317 1.589 1.742 2.56.634 2.021.634 3.141a7.96 7.96 0 0 1-.634 3.161 7.94 7.94 0 0 1-1.742 2.556 8.17 8.17 0 0 1-2.605 1.718c-.996.423-2.072.635-3.222.635s-2.222-.212-3.222-.635-1.867-.992-2.605-1.718-1.317-1.572-1.738-2.556a7.95 7.95 0 0 1-.634-3.161zm29.157-5.15h-4.202v6.962l.038 1.282c.021.419.1.801.242 1.137a1.82 1.82 0 0 0 .65.805c.292.203.721.311 1.288.311a6.46 6.46 0 0 0 1.071-.095 3.2 3.2 0 0 0 1.009-.357v2.655c-.346.195-.796.328-1.35.402l-1.284.116c-1.13 0-2.005-.158-2.622-.469s-1.075-.722-1.367-1.22c-.292-.49-.463-1.05-.521-1.664l-.079-1.863v-8.003h-3.385v-2.527h3.385v-4.311h2.926v4.311h4.202v2.527zm5.012 12.832h2.928V51.346h-2.928zm16.728-7.39a20.77 20.77 0 0 0-2.13.112c-.729.079-1.392.224-1.988.44s-1.084.519-1.463.904-.571.888-.571 1.494c0 .888.3 1.518.896 1.913.596.386 1.405.581 2.426.581.8 0 1.484-.137 2.051-.407s1.017-.618 1.367-1.054a4.06 4.06 0 0 0 .746-1.44c.15-.527.229-1.05.229-1.572v-.971h-1.563zm-8.27-6.091a8.19 8.19 0 0 1 2.864-1.701c1.084-.378 2.172-.564 3.26-.564 1.125 0 2.097.141 2.909.419s1.484.66 2.005 1.137.904 1.016 1.155 1.635a5.14 5.14 0 0 1 .375 1.925v7.841l.029 1.489.1 1.299h-2.605l-.096-2.336h-.067c-.65.996-1.421 1.697-2.309 2.108s-1.922.614-3.093.614a7.12 7.12 0 0 1-2.051-.29 5.01 5.01 0 0 1-1.709-.875c-.488-.39-.875-.867-1.155-1.44s-.425-1.236-.425-1.991c0-.996.225-1.826.667-2.498s1.055-1.216 1.826-1.635 1.667-.726 2.701-.909a18.91 18.91 0 0 1 3.301-.274h2.151v-.647c0-.39-.079-.78-.229-1.166a3.11 3.11 0 0 0-.684-1.054c-.305-.311-.684-.564-1.138-.747s-1-.274-1.626-.274c-.567 0-1.059.054-1.484.162s-.809.245-1.155.407a5.21 5.21 0 0 0-.946.564l-.813.614-1.759-1.813zm17.644-1.879h2.93v2.365h.063c.367-.821 1.009-1.485 1.922-1.991s1.959-.763 3.155-.763a6.82 6.82 0 0 1 2.134.34c.684.228 1.28.581 1.788 1.054s.917 1.087 1.221 1.83.454 1.626.454 2.639v9.883h-2.93v-9.069c0-.714-.096-1.323-.292-1.834s-.454-.913-.779-1.228a2.96 2.96 0 0 0-1.125-.68 4.13 4.13 0 0 0-1.317-.212c-.604 0-1.171.1-1.692.29s-.975.502-1.367.925-.692.954-.909 1.606c-.221.643-.325 1.415-.325 2.298v7.904h-2.93V60.477zm25.577 13.024c.779 0 1.488-.137 2.117-.407a4.7 4.7 0 0 0 1.592-1.099 4.98 4.98 0 0 0 1.013-1.689c.233-.656.354-1.373.354-2.153a6.4 6.4 0 0 0-.354-2.153c-.242-.656-.579-1.22-1.013-1.684s-.963-.834-1.592-1.099c-.629-.274-1.338-.407-2.117-.407s-1.484.133-2.113.407c-.634.266-1.163.635-1.596 1.099s-.771 1.029-1.009 1.684a6.31 6.31 0 0 0-.358 2.153c0 .78.121 1.498.358 2.153s.575 1.22 1.009 1.689c.433.461.963.83 1.596 1.099s1.334.407 2.113.407zm8.007 2.332h-2.93V73.63h-.063c-.567.821-1.342 1.46-2.326 1.913s-2.005.68-3.047.68c-1.192 0-2.272-.207-3.239-.618s-1.788-.979-2.472-1.713a7.79 7.79 0 0 1-1.58-2.56c-.371-.971-.55-2.033-.55-3.178s.183-2.207.55-3.19.896-1.834 1.58-2.556 1.509-1.294 2.472-1.701 2.047-.618 3.239-.618a7.17 7.17 0 0 1 3.126.697c.975.465 1.726 1.099 2.247 1.896h.063v-11.34h2.93v24.491zM0 74.281L.454 27.54c.004-1.452 1.209-3.103 2.672-3.663L36.455 11.19c1.463-.56 2.655.17 2.647 1.622l-9.704 46.152c-.004 1.456-1.872 5.497-3.335 6.057L2.651 75.903c-1.467.56-2.659-.17-2.651-1.622z" fill="#201751"/><path d="M6.499 131.251l.717-73.929c.013-2.298 1.913-4.908 4.231-5.796l52.711-20.068c2.318-.888 4.202.266 4.189 2.568l-15.347 72.995c-.008 2.303-1.913 4.912-4.227 5.8l-38.085 20.993c-2.313.892-4.197-.266-4.189-2.564" fill="#e5007d"/><path d="M63.333 155.658l.188-53.23c.008-2.303-1.084-4.925-2.426-5.829L26.657 73.34c-1.342-.909-2.451.232-2.463 2.535l-.183 53.23c0 3.149 0 4.136 2.422 5.829l33.854 22.864c1.959 1.241 3.047.805 3.047-2.141" fill="#201751"/><g fill="#e5007d"><path d="M20.825 128.231l8.812-5.157c.654 0 1.192-.535 1.192-1.187V56.961a1.19 1.19 0 0 0-1.192-1.182H17.432a1.19 1.19 0 0 0-1.192 1.182v64.926c0 .651 3.931 6.344 4.585 6.344"/><path d="M29.993 123.012l-5.381 3.132-.659-2.112c.083-.054 3.551-3.195 3.868-3.224s2.172 2.203 2.172 2.203zm64.741-13.666h4.156c1.055 0 2.03-.137 2.93-.415s1.68-.701 2.338-1.278 1.18-1.315 1.559-2.211.571-1.971.571-3.232-.192-2.332-.571-3.228-.9-1.635-1.559-2.211-1.434-1.004-2.338-1.278-1.876-.415-2.93-.415h-4.156v14.268zm-2.18-16.284h7.061c.609 0 1.246.066 1.922.212.675.133 1.346.353 2.013.656a9.24 9.24 0 0 1 1.922 1.178c.613.481 1.155 1.062 1.621 1.743s.838 1.465 1.117 2.352.417 1.892.417 3.008-.138 2.124-.417 3.012-.646 1.672-1.117 2.352-1.009 1.261-1.621 1.743a9.24 9.24 0 0 1-1.922 1.178 9.36 9.36 0 0 1-2.013.66 9.67 9.67 0 0 1-1.922.207h-7.061V93.061zm19.653 18.298h2.026V99.262h-2.026v12.098zm-.467-16.824a1.42 1.42 0 0 1 .429-1.029c.288-.299.634-.44 1.05-.44s.767.141 1.05.44a1.42 1.42 0 0 1 .429 1.029c0 .436-.138.784-.417 1.062s-.629.415-1.063.415-.788-.137-1.063-.415-.417-.626-.417-1.062zm8.257 10.778c0 .622.113 1.195.338 1.718a4.29 4.29 0 0 0 .921 1.369c.388.39.846.697 1.363.917a4.17 4.17 0 0 0 1.663.34c.692 0 1.305-.12 1.842-.361s.992-.564 1.363-.971a4.17 4.17 0 0 0 .846-1.398c.188-.523.283-1.083.283-1.664 0-.66-.104-1.253-.308-1.801-.213-.539-.504-1.008-.884-1.406s-.842-.701-1.375-.917a4.78 4.78 0 0 0-1.767-.319c-.642 0-1.225.112-1.755.344a4.04 4.04 0 0 0-1.35.954 4.49 4.49 0 0 0-.867 1.423c-.208.544-.313 1.137-.313 1.772zm10.646 5.506c0 2.207-.567 3.879-1.701 5.024s-2.772 1.722-4.923 1.722c-1.192 0-2.272-.174-3.23-.519s-1.872-.938-2.738-1.784l1.455-1.651c.638.689 1.317 1.207 2.038 1.564.717.349 1.542.527 2.476.527.904 0 1.651-.133 2.251-.402s1.063-.626 1.413-1.083a4.19 4.19 0 0 0 .729-1.564 7.98 7.98 0 0 0 .204-1.834v-1.552h-.05c-.488.776-1.117 1.344-1.897 1.705a5.57 5.57 0 0 1-2.388.544c-.95 0-1.83-.154-2.622-.465-.8-.311-1.484-.743-2.051-1.29-.575-.552-1.017-1.207-1.325-1.967s-.467-1.585-.467-2.481c0-.983.154-1.871.467-2.659.308-.797.746-1.46 1.313-2.008.559-.539 1.238-.958 2.038-1.249.792-.295 1.676-.44 2.647-.44a5.55 5.55 0 0 1 1.246.141c.413.091.817.241 1.209.44s.738.448 1.05.747a4.18 4.18 0 0 1 .779 1.05h.05v-2.07h2.026v11.555zm3.998-8.684l-.05-1.552-.054-1.315h1.922l.025.983.029 1.004h.05c.138-.29.333-.577.584-.851s.55-.523.896-.734c.346-.22.738-.39 1.167-.519s.904-.195 1.405-.195c.796 0 1.484.12 2.063.361s1.063.577 1.442 1.008.659.954.842 1.564.275 1.278.275 2.004v7.468h-2.026v-7.265c0-1.012-.225-1.817-.675-2.398s-1.15-.88-2.101-.88c-.663 0-1.23.108-1.705.332s-.867.548-1.167.958-.529.904-.675 1.473-.221 1.199-.221 1.888v5.891h-2.026v-9.227zm14.88 9.224h2.026V99.262h-2.026v12.098zm-.467-16.824c0-.39.142-.739.425-1.029.283-.299.638-.44 1.05-.44s.767.141 1.055.44c.283.29.425.639.425 1.029 0 .436-.138.784-.413 1.062s-.634.415-1.067.415-.784-.137-1.063-.415-.413-.626-.413-1.062zm13.421 6.435h-3.585v6.049l.025 1.099c.021.332.088.626.208.875a1.4 1.4 0 0 0 .546.597c.242.145.588.22 1.038.22a4.33 4.33 0 0 0 .909-.104 3.91 3.91 0 0 0 .884-.311l.079 1.838c-.346.154-.734.266-1.159.332s-.825.104-1.205.104c-.729 0-1.305-.095-1.742-.282-.429-.191-.767-.456-1.009-.801s-.404-.772-.484-1.282-.117-1.07-.117-1.693v-6.642h-2.647v-1.705h2.647v-3.439h2.026v3.439h3.585v1.705zm7.219 13.158l-.634 1.406a4.36 4.36 0 0 1-.784 1.087c-.3.303-.667.535-1.088.697s-.938.245-1.546.245c-.292 0-.6-.017-.921-.05s-.621-.12-.896-.257l.258-1.759c.208.087.425.141.654.166.221.029.484.041.775.041.659 0 1.142-.183 1.455-.544s.579-.846.804-1.448l.829-2.274-5.035-12.173h2.363l3.764 9.484h.05l3.61-9.484h2.205l-5.865 14.861zm23.678-13.158h-2.647v-1.705h2.647v-2.713c0-.739.071-1.415.208-2.029s.375-1.141.713-1.589.784-.797 1.338-1.046 1.238-.378 2.051-.378a4.66 4.66 0 0 1 .834.079 2.48 2.48 0 0 1 .725.232l-.288 1.809c-.484-.17-.942-.257-1.375-.257-.521 0-.925.087-1.217.27s-.517.431-.663.751-.238.701-.263 1.149l-.038 1.448v2.274h2.959v1.705h-2.959v10.389h-2.026v-10.389zm13.113 4.577c-1.3 0-2.326.183-3.089.539-.763.365-1.142.958-1.142 1.784 0 .759.254 1.299.767 1.618s1.142.477 1.905.477c.588 0 1.105-.1 1.546-.299s.809-.456 1.105-.784a3.42 3.42 0 0 0 .671-1.153c.158-.44.246-.909.263-1.406v-.776h-2.026zm-5.869-4.73c.625-.635 1.363-1.104 2.217-1.406s1.73-.456 2.613-.456c1.801 0 3.097.423 3.893 1.265s1.196 2.128 1.196 3.854v5.194l.05 1.07.129 1.025h-1.947c-.071-.274-.108-.585-.117-.917l-.013-.896h-.05a4.76 4.76 0 0 1-1.596 1.527c-.667.398-1.467.593-2.401.593-.625 0-1.209-.075-1.759-.232-.542-.158-1.017-.382-1.426-.685a3.39 3.39 0 0 1-.975-1.124c-.242-.448-.363-.963-.363-1.548 0-1 .263-1.784.779-2.352a4.75 4.75 0 0 1 1.934-1.27c.771-.274 1.601-.448 2.493-.514l2.455-.104h.779v-.365c0-.875-.263-1.539-.792-1.987s-1.267-.672-2.217-.672c-.663 0-1.305.108-1.938.324s-1.188.548-1.671.992l-1.275-1.315zm14.074 10.542h2.026V99.262h-2.026v12.098zm-.467-16.824c0-.39.142-.739.425-1.029.283-.299.638-.44 1.05-.44s.767.141 1.055.44a1.42 1.42 0 0 1 .429 1.029 1.44 1.44 0 0 1-.417 1.062c-.275.278-.629.415-1.067.415-.429 0-.788-.137-1.063-.415s-.413-.626-.413-1.062zm6.775 7.6l-.05-1.552-.054-1.315h1.922l.025.983.029 1.004h.05c.138-.29.333-.577.584-.851s.55-.523.896-.734c.346-.22.738-.39 1.167-.519s.904-.195 1.405-.195c.138 0 .275.008.417.029.138.012.275.046.413.1l-.129 2.041c-.346-.104-.713-.154-1.092-.154-1.242 0-2.147.402-2.713 1.199-.559.801-.842 1.9-.842 3.298v5.891h-2.026v-9.227zm9.399 0l-.05-1.552-.054-1.315h1.922l.025.983.025 1.004h.054c.138-.29.333-.577.584-.851s.55-.523.896-.734c.346-.22.738-.39 1.167-.519s.904-.195 1.405-.195c.796 0 1.484.12 2.063.361s1.063.577 1.442 1.008.659.954.842 1.564.275 1.278.275 2.004v7.468h-2.026v-7.265c0-1.012-.229-1.817-.675-2.398s-1.155-.88-2.105-.88c-.659 0-1.225.108-1.701.332s-.867.548-1.167.958-.529.904-.675 1.473-.221 1.199-.221 1.888v5.891h-2.026v-9.227zm23.808 2.091c-.033-1.033-.371-1.859-1.013-2.477s-1.521-.933-2.647-.933-2.034.311-2.726.933-1.109 1.444-1.246 2.477h7.632zm1.742 4.937c-.729.929-1.526 1.581-2.393 1.954s-1.867.552-3.009.552c-.95 0-1.809-.166-2.572-.502s-1.405-.788-1.934-1.357-.934-1.241-1.221-2.016-.425-1.601-.425-2.481c0-.933.154-1.788.467-2.572s.742-1.456 1.296-2.016a5.87 5.87 0 0 1 1.972-1.303c.763-.311 1.592-.465 2.493-.465.85 0 1.63.141 2.338.423s1.321.701 1.83 1.241.904 1.207 1.184 1.991.417 1.676.417 2.676v.647h-9.816c.033.514.158 1.012.375 1.485a4.25 4.25 0 0 0 .842 1.236c.35.357.754.635 1.221.842a3.74 3.74 0 0 0 1.534.311c.884 0 1.626-.154 2.234-.465s1.15-.768 1.634-1.373l1.534 1.191zm4.101-.981c.396.498.834.896 1.309 1.191s1.08.44 1.809.44c.313 0 .625-.037.946-.108s.609-.178.871-.332.467-.353.621-.581c.158-.236.238-.514.238-.842s-.079-.593-.225-.801a1.95 1.95 0 0 0-.584-.531 3.41 3.41 0 0 0-.829-.349l-.963-.232-1.634-.415c-.521-.154-.975-.357-1.363-.606s-.7-.573-.934-.971-.354-.904-.354-1.523c0-.585.133-1.104.392-1.552a3.32 3.32 0 0 1 1.038-1.112c.433-.295.917-.514 1.455-.672a6.01 6.01 0 0 1 1.663-.232c.863 0 1.663.174 2.401.514.734.349 1.309.904 1.726 1.68l-1.688 1.112a3.12 3.12 0 0 0-1.025-1.046c-.421-.266-.938-.402-1.546-.402a3.74 3.74 0 0 0-.842.104c-.288.071-.542.174-.763.311-.229.141-.413.315-.563.531a1.28 1.28 0 0 0-.221.734c0 .261.083.481.246.66s.392.344.679.477a5.53 5.53 0 0 0 .988.365l1.15.257c.538.104 1.05.236 1.534.402s.909.382 1.271.66.65.618.854 1.033c.213.415.317.921.317 1.523 0 .689-.142 1.278-.417 1.759s-.646.871-1.105 1.174-.98.523-1.559.66-1.171.207-1.776.207c-1.038 0-1.938-.162-2.688-.481s-1.434-.909-2.038-1.767l1.609-1.241zm11.32 0c.396.498.834.896 1.309 1.191s1.08.44 1.809.44c.313 0 .625-.037.946-.108s.609-.178.871-.332.467-.353.621-.581c.158-.236.238-.514.238-.842s-.079-.593-.225-.801a1.95 1.95 0 0 0-.584-.531 3.41 3.41 0 0 0-.829-.349l-.963-.232-1.634-.415c-.521-.154-.975-.357-1.363-.606s-.7-.573-.934-.971-.354-.904-.354-1.523c0-.585.133-1.104.392-1.552a3.32 3.32 0 0 1 1.038-1.112c.433-.295.917-.514 1.455-.672a6.01 6.01 0 0 1 1.663-.232c.863 0 1.663.174 2.401.514.734.349 1.309.904 1.726 1.68l-1.688 1.112a3.12 3.12 0 0 0-1.025-1.046c-.421-.266-.938-.402-1.546-.402a3.74 3.74 0 0 0-.842.104c-.288.071-.542.174-.763.311-.229.141-.413.315-.563.531a1.28 1.28 0 0 0-.221.734c0 .261.083.481.246.66s.392.344.679.477a5.53 5.53 0 0 0 .988.365l1.15.257c.538.104 1.05.236 1.534.402s.909.382 1.271.66.65.618.854 1.033c.213.415.317.921.317 1.523 0 .689-.142 1.278-.417 1.759s-.646.871-1.105 1.174-.98.523-1.559.66-1.171.207-1.776.207c-1.038 0-1.938-.162-2.688-.481s-1.434-.909-2.038-1.767l1.609-1.241zm27.317-6.047l-.05-1.552-.054-1.315h1.922l.025.983.025 1.004h.054c.138-.29.333-.577.584-.851s.55-.523.896-.734c.346-.22.738-.39 1.167-.519s.904-.195 1.405-.195a2.76 2.76 0 0 1 .413.029 1.49 1.49 0 0 1 .417.1l-.129 2.041c-.346-.104-.713-.154-1.092-.154-1.242 0-2.147.402-2.713 1.199s-.842 1.9-.842 3.298v5.891h-2.026v-9.227zm18.042 2.091c-.033-1.033-.371-1.859-1.013-2.477s-1.521-.933-2.647-.933-2.034.311-2.726.933-1.109 1.444-1.246 2.477h7.632zm1.742 4.937c-.729.929-1.526 1.581-2.393 1.954s-1.867.552-3.009.552c-.95 0-1.809-.166-2.572-.502s-1.405-.788-1.934-1.357-.934-1.241-1.221-2.016-.425-1.601-.425-2.481c0-.933.154-1.788.467-2.572s.742-1.456 1.296-2.016a5.87 5.87 0 0 1 1.972-1.303c.763-.311 1.592-.465 2.493-.465.85 0 1.63.141 2.338.423s1.321.701 1.83 1.241.904 1.207 1.184 1.991.417 1.676.417 2.676v.647h-9.816c.033.514.158 1.012.375 1.485a4.25 4.25 0 0 0 .842 1.236c.35.357.754.635 1.221.842a3.74 3.74 0 0 0 1.534.311c.884 0 1.626-.154 2.234-.465s1.15-.768 1.634-1.373l1.534 1.191zm4.101-.981c.396.498.834.896 1.313 1.191s1.075.44 1.805.44c.313 0 .625-.037.946-.108s.609-.178.871-.332.467-.353.621-.581c.158-.236.238-.514.238-.842s-.079-.593-.225-.801a1.95 1.95 0 0 0-.584-.531 3.41 3.41 0 0 0-.829-.349l-.963-.232-1.634-.415c-.521-.154-.975-.357-1.363-.606s-.7-.573-.934-.971-.354-.904-.354-1.523c0-.585.133-1.104.392-1.552a3.32 3.32 0 0 1 1.038-1.112c.433-.295.917-.514 1.455-.672a6.01 6.01 0 0 1 1.663-.232c.863 0 1.663.174 2.401.514.734.349 1.309.904 1.726 1.68l-1.688 1.112a3.12 3.12 0 0 0-1.025-1.046c-.421-.266-.938-.402-1.546-.402a3.74 3.74 0 0 0-.842.104c-.288.071-.542.174-.763.311-.229.141-.413.315-.563.531a1.28 1.28 0 0 0-.221.734c0 .261.083.481.246.66s.392.344.679.477a5.53 5.53 0 0 0 .988.365l1.15.257c.538.104 1.05.236 1.534.402s.909.382 1.271.66.65.618.854 1.033c.213.415.317.921.317 1.523 0 .689-.142 1.278-.417 1.759s-.646.871-1.105 1.174-.98.523-1.559.66-1.171.207-1.776.207c-1.038 0-1.938-.162-2.688-.481s-1.434-.909-2.038-1.767l1.609-1.241zm12.983-2.869c0 .635.1 1.228.3 1.772s.488 1.016.867 1.423.838.722 1.363.954 1.121.349 1.78.349 1.25-.116 1.78-.349a4.18 4.18 0 0 0 2.234-2.377 5.2 5.2 0 0 0 .296-1.772 5.2 5.2 0 0 0-.296-1.772 4.22 4.22 0 0 0-.871-1.423 4.18 4.18 0 0 0-1.363-.954c-.529-.232-1.121-.344-1.78-.344s-1.25.112-1.78.344-.98.552-1.363.954c-.379.411-.671.88-.867 1.423s-.3 1.137-.3 1.772zm-2.026-6.049h2.026v1.759h.05c.559-.656 1.2-1.162 1.934-1.527s1.551-.539 2.43-.539c.955 0 1.821.158 2.609.477s1.459.763 2.013 1.332.988 1.241 1.296 2.012.467 1.622.467 2.535-.154 1.759-.467 2.535-.742 1.448-1.284 2.012c-.546.573-1.192 1.012-1.934 1.332s-1.542.477-2.388.477c-1.092 0-2.051-.232-2.868-.709-.825-.473-1.426-1.058-1.809-1.743h-.05v8.036h-2.026v-17.99zm25.342 4.961c-.033-1.033-.371-1.859-1.013-2.477s-1.521-.933-2.647-.933-2.034.311-2.726.933-1.109 1.444-1.246 2.477h7.632zm1.742 4.937c-.729.929-1.526 1.581-2.393 1.954s-1.867.552-3.009.552c-.95 0-1.809-.166-2.572-.502s-1.405-.788-1.934-1.357-.934-1.241-1.221-2.016-.425-1.601-.425-2.481c0-.933.154-1.788.467-2.572s.742-1.456 1.296-2.016a5.87 5.87 0 0 1 1.972-1.303c.763-.311 1.596-.465 2.497-.465.846 0 1.626.141 2.334.423s1.321.701 1.83 1.241.904 1.207 1.184 1.991.417 1.676.417 2.676v.647h-9.816c.033.514.158 1.012.375 1.485a4.25 4.25 0 0 0 .842 1.236c.35.357.754.635 1.221.842a3.74 3.74 0 0 0 1.534.311c.884 0 1.626-.154 2.234-.465s1.15-.768 1.634-1.373l1.534 1.191zm12.486-6.872c-.433-.519-.9-.892-1.401-1.124s-1.059-.349-1.663-.349c-.675 0-1.275.116-1.792.349s-.946.556-1.284.971a4.23 4.23 0 0 0-.767 1.431c-.175.544-.258 1.124-.258 1.747a5.1 5.1 0 0 0 .296 1.743c.2.544.475 1.021.834 1.436s.784.734 1.284.971c.504.228 1.067.349 1.688.349 1.334 0 2.363-.502 3.089-1.498l1.505 1.419a5.28 5.28 0 0 1-2.076 1.473c-.796.307-1.634.465-2.518.465-.934 0-1.792-.158-2.572-.465s-1.438-.751-1.988-1.319c-.542-.568-.967-1.241-1.271-2.016s-.45-1.626-.45-2.556c0-.913.146-1.759.45-2.535a5.96 5.96 0 0 1 1.288-2.012c.554-.573 1.213-1.016 1.988-1.332.767-.319 1.621-.481 2.555-.481.9 0 1.751.158 2.555.469a5.55 5.55 0 0 1 2.117 1.448l-1.609 1.419zm10.776-1.321h-3.585v6.049l.025 1.099c.021.332.088.626.208.875a1.4 1.4 0 0 0 .546.597c.242.145.588.22 1.038.22a4.33 4.33 0 0 0 .909-.104 3.91 3.91 0 0 0 .884-.311l.079 1.838c-.346.154-.734.266-1.159.332s-.825.104-1.205.104c-.729 0-1.305-.095-1.742-.282-.429-.191-.767-.456-1.009-.801s-.404-.772-.484-1.282-.117-1.07-.117-1.693v-6.642h-2.647v-1.705h2.647v-3.439h2.026v3.439h3.585v1.705zm-207.683 9.254c0-.203.038-.394.113-.577a1.44 1.44 0 0 1 .321-.477c.138-.141.304-.245.5-.328s.408-.116.642-.116c.267 0 .504.046.713.141s.383.236.521.407a1.84 1.84 0 0 1 .313.602c.071.22.108.469.108.734a4.71 4.71 0 0 1-.175 1.241c-.117.431-.279.855-.492 1.278s-.479.826-.796 1.228a7.47 7.47 0 0 1-1.075 1.104l-.4-.386a.49.49 0 0 1-.171-.373c0-.116.063-.232.188-.357l.338-.394c.138-.162.279-.353.421-.564a5.67 5.67 0 0 0 .396-.705 3.5 3.5 0 0 0 .258-.821h-.175a1.6 1.6 0 0 1-.625-.12c-.188-.079-.35-.195-.488-.34s-.246-.319-.321-.519-.113-.415-.113-.656zm106.35 0c0-.203.038-.394.113-.577s.183-.34.321-.477.304-.245.5-.328.408-.116.642-.116c.267 0 .504.046.713.141s.383.236.521.407a1.84 1.84 0 0 1 .313.602c.075.22.108.469.108.734a4.71 4.71 0 0 1-.175 1.241c-.117.431-.279.855-.492 1.278s-.479.826-.796 1.228-.671.763-1.071 1.104l-.404-.386c-.113-.108-.171-.232-.171-.373 0-.116.063-.232.188-.357l.342-.394.417-.564c.146-.216.275-.448.396-.705s.204-.527.258-.821h-.171c-.233 0-.442-.041-.629-.12s-.35-.195-.488-.34-.242-.319-.321-.519-.113-.415-.113-.656z"/></g></svg>